# xmcd
#
# Track frame offsets:
#	150
#	18856
#	39699
#	55179
#	65826
#	82252
#	95403
#	108790
#	139199
#	156501
#	179356
#	192994
#	210198
#	236127
#	245692
#
# Disc length: 3405 seconds
#
# Revision: 3
# Processed by: cddbd v1.5.2PL0 Copyright (c) Steve Scherf et al.
# Submitted via: EZCDAudioConverter 2.1.7.1
#
DISCID=d50d4b0f
DTITLE=V/A - Pretty Vacant
DYEAR=2015
DGENRE=
TTITLE0=The Dictators - Master Race Rock
TTITLE1=Flamin' Groovies - Slow Death
TTITLE2=Mick Farren and The New Wave - Lost Johnny
TTITLE3=Count Bishops - I Need You
TTITLE4=The 101'ers - Keys To Your Heart
TTITLE5=New York Dolls - Who Are The Mystery Girls?
TTITLE6=Pink Fairies - Do It
TTITLE7=MC5 - Sister Anne
TTITLE8=The Stooges - Cock In My Pocket
TTITLE9=Hollywood Brats - Sick On You
TTITLE10=Hawkwind - Motorhead
TTITLE11=Sonic's Rendezvous Band - Electrophonic Tonic
TTITLE12=Death - Politicians In My Eyes
TTITLE13=Electric Eels - Agitated
TTITLE14=Crushed Butler - It's My Life
EXTD=
EXTT0=
EXTT1=
EXTT2=
EXTT3=
EXTT4=
EXTT5=
EXTT6=
EXTT7=
EXTT8=
EXTT9=
EXTT10=
EXTT11=
EXTT12=
EXTT13=
EXTT14=
PLAYORDER=
